<svg width="25" height="25" viewBox="0 0 25 25" fill="none" xmlns="http://www.w3.org/2000/svg">
<rect width="25" height="25" rx="4" fill="#274E7D"/>
<path d="M11 6.25C11 6.48012 10.8135 6.66667 10.5833 6.66667C10.3532 6.66667 10.1667 6.48012 10.1667 6.25C10.1667 5.55964 10.7263 5 11.4167 5H13.9167C14.607 5 15.1667 5.55964 15.1667 6.25C15.1667 6.48012 14.9801 6.66667 14.75 6.66667C14.5199 6.66667 14.3333 6.48012 14.3333 6.25C14.3333 6.01988 14.1468 5.83333 13.9167 5.83333H11.4167C11.1866 5.83333 11 6.01988 11 6.25ZM8.08333 5.83333C8.31345 5.83333 8.5 6.01988 8.5 6.25C8.5 6.48012 8.31345 6.66667 8.08333 6.66667C7.39298 6.66667 6.83333 7.22631 6.83333 7.91667V17.9167C6.83333 18.607 7.39298 19.1667 8.08333 19.1667H17.25C17.9403 19.1667 18.5 18.607 18.5 17.9167V7.91667C18.5 7.22631 17.9403 6.66667 17.25 6.66667C17.0199 6.66667 16.8333 6.48012 16.8333 6.25C16.8333 6.01988 17.0199 5.83333 17.25 5.83333C18.4006 5.83333 19.3333 6.76607 19.3333 7.91667V17.9167C19.3333 19.0672 18.4006 20 17.25 20H8.08333C6.93274 20 6 19.0672 6 17.9167V7.91667C6 6.76607 6.93274 5.83333 8.08333 5.83333Z" fill="white"/>
<path d="M15.2887 10.122C15.4515 9.95932 15.7153 9.95932 15.878 10.122C16.0407 10.2848 16.0407 10.5486 15.878 10.7113L11.7114 14.878C11.5486 15.0407 11.2848 15.0407 11.122 14.878L9.45542 13.2113C9.29269 13.0486 9.29269 12.7848 9.45542 12.622C9.61813 12.4593 9.88195 12.4593 10.0447 12.622L11.4167 13.9941L15.2887 10.122Z" fill="white"/>
</svg>
