<svg width="25" height="25" viewBox="0 0 25 25" fill="none" xmlns="http://www.w3.org/2000/svg">
<rect width="25" height="25" rx="4" fill="#274E7D"/>
<path d="M12.6641 5C13.1953 5 13.6953 5.0625 14.1953 5.15625C14.4453 5.21875 14.8828 5.34375 15.1328 5.78125C15.1953 5.90625 15.2266 6.03125 15.2578 6.15625L15.5703 7.375C15.6016 7.53125 15.9141 7.71875 16.1016 7.65625L17.2891 7.3125C17.4141 7.28125 17.5391 7.25 17.6641 7.25C18.1641 7.25 18.5078 7.5625 18.6641 7.75C19.3516 8.53125 19.8828 9.4375 20.2266 10.4375C20.3203 10.6875 20.4141 11.125 20.1328 11.5312C20.0703 11.6562 19.9766 11.75 19.8828 11.8438L19.0078 12.7188C18.8516 12.8438 18.8516 13.1875 19.0078 13.3125L19.8828 14.1875C19.9766 14.2812 20.0703 14.375 20.1328 14.5C20.3828 14.9062 20.2891 15.3438 20.2266 15.5938C19.8828 16.5938 19.3516 17.5 18.6641 18.2812C18.5078 18.4688 18.1641 18.7812 17.6641 18.7812C17.5391 18.7812 17.4141 18.75 17.2891 18.7188L16.1016 18.3438C15.9141 18.3125 15.6016 18.4688 15.5703 18.6562L15.2578 19.875C15.2266 20 15.1953 20.125 15.1328 20.25C14.8828 20.6875 14.4453 20.8125 14.1953 20.875C13.6953 20.9688 13.1953 21 12.6641 21C12.1328 21 11.6016 20.9688 11.1016 20.875C10.8516 20.8125 10.4141 20.6875 10.1641 20.25C10.1016 20.125 10.0703 20 10.0391 19.875L9.72656 18.6562C9.69531 18.4688 9.38281 18.3125 9.22656 18.3438L8.03906 18.7188C7.91406 18.75 7.75781 18.75 7.63281 18.7812C7.13281 18.7812 6.78906 18.4688 6.63281 18.2812C5.94531 17.5 5.41406 16.5938 5.07031 15.5938C5.00781 15.3438 4.91406 14.9062 5.16406 14.4688C5.22656 14.375 5.32031 14.25 5.41406 14.1562L6.32031 13.3125C6.44531 13.1875 6.44531 12.8438 6.32031 12.7188L5.41406 11.8438C5.32031 11.75 5.22656 11.6562 5.16406 11.5312C4.91406 11.125 5.00781 10.6875 5.07031 10.4375C5.41406 9.4375 5.94531 8.53125 6.63281 7.75C6.78906 7.5625 7.13281 7.25 7.63281 7.25C7.75781 7.25 7.91406 7.28125 8.03906 7.3125L9.22656 7.65625C9.38281 7.71875 9.69531 7.53125 9.72656 7.375L10.0391 6.15625C10.0703 6.03125 10.1016 5.90625 10.1641 5.78125C10.4141 5.34375 10.8516 5.21875 11.1016 5.15625C11.6016 5.0625 12.1328 5 12.6641 5ZM11.4766 6.625L11.1953 7.71875C10.9453 8.71875 9.78906 9.40625 8.78906 9.125L7.69531 8.78125C7.19531 9.40625 6.78906 10.0938 6.50781 10.8438L7.35156 11.625C8.10156 12.3438 8.10156 13.6875 7.35156 14.4062L6.50781 15.1875C6.78906 15.9375 7.19531 16.625 7.69531 17.25L8.78906 16.9062C9.78906 16.625 10.9453 17.3125 11.1953 18.3125L11.4766 19.4062C12.2266 19.5625 13.0703 19.5625 13.8516 19.4062L14.1016 18.3125C14.3516 17.3125 15.5078 16.625 16.5078 16.9062L17.6016 17.25C18.1016 16.625 18.5078 15.9375 18.7891 15.1875L17.9766 14.4062C17.2266 13.6875 17.2266 12.3438 17.9766 11.625L18.7891 10.8438C18.5078 10.0938 18.1016 9.40625 17.6016 8.78125L16.5078 9.125C15.5391 9.40625 14.3516 8.71875 14.1016 7.71875L13.8516 6.625C13.0703 6.46875 12.2266 6.46875 11.4766 6.625ZM11.1641 13C11.1641 13.5625 11.4453 14.0312 11.9141 14.3125C12.3516 14.5938 12.9453 14.5938 13.4141 14.3125C13.8516 14.0312 14.1641 13.5625 14.1641 13C14.1641 12.4688 13.8516 12 13.4141 11.7188C12.9453 11.4375 12.3516 11.4375 11.9141 11.7188C11.4453 12 11.1641 12.4688 11.1641 13ZM12.6641 16C11.5703 16 10.6016 15.4375 10.0391 14.5C9.50781 13.5938 9.50781 12.4375 10.0391 11.5C10.6016 10.5938 11.5703 10 12.6641 10C13.7266 10 14.6953 10.5938 15.2578 11.5C15.7891 12.4375 15.7891 13.5938 15.2578 14.5C14.6953 15.4375 13.7266 16 12.6641 16Z" fill="white"/>
<circle cx="19" cy="17" r="3.625" fill="white" stroke="#274E7D" stroke-width="0.75"/>
<path d="M21 16.5C21 16.625 20.9083 16.7143 20.8 16.7143H19.8667H19.6C19.4833 16.7143 19.4 16.625 19.4 16.5C19.4 16.3839 19.4833 16.2857 19.6 16.2857H19.8667H20.3167L19.8833 15.8214C19.6417 15.5714 19.325 15.4286 19 15.4286C18.3917 15.4286 17.8667 15.8304 17.65 16.3929C17.6 16.5 17.4833 16.5446 17.3833 16.5C17.2833 16.4554 17.2333 16.3304 17.275 16.2232C17.5583 15.5089 18.225 15 19 15C19.4333 15 19.85 15.1875 20.1583 15.5179L20.6 15.9911V15.5V15.2143C20.6 15.0982 20.6833 15 20.8 15C20.9083 15 21 15.0982 21 15.2143V16.5ZM17.2 17.2857H18.1333C18.2417 17.2857 18.3333 17.3839 18.3333 17.5C18.3333 17.625 18.2417 17.7143 18.1333 17.7143H17.675L18.1167 18.1875C18.35 18.4375 18.6667 18.5714 19 18.5714C19.6 18.5714 20.125 18.1875 20.3417 17.625C20.3917 17.5089 20.5083 17.4643 20.6083 17.5089C20.7083 17.5536 20.7583 17.6786 20.7167 17.7946C20.425 18.5 19.7667 19 19 19C18.5583 19 18.1417 18.8214 17.8333 18.4911L17.4 18.0179V18.5C17.4 18.625 17.3083 18.7143 17.2 18.7143C17.0833 18.7143 17 18.625 17 18.5V17.5C17 17.3839 17.0833 17.2857 17.2 17.2857Z" fill="#274E7D"/>
</svg>
